<?xml version="1.0" encoding="UTF-8"?>
<!-- Generator: visioncortex VTracer 0.6.5 -->
<svg version="1.1" xmlns="http://www.w3.org/2000/svg" width="256" height="256">
<path d="M0 0 C84.48 0 168.96 0 256 0 C256 84.48 256 168.96 256 256 C171.52 256 87.04 256 0 256 C0 171.52 0 87.04 0 0 Z " fill="#1C2130" transform="translate(0,0)"/>
<path d="M0 0 C1 1 1 1 1.5 3.19 C0.81 7.05 -0.97 8.47 -4.01 10.83 C-7.21 12.71 -9.37 12.56 -13 12 C-15.22 11.33 -17.4 10.57 -19.59 9.8 C-40.06 3.01 -62.09 7.06 -80.92 16.46 C-92.93 22.98 -104.2 32 -111 44 C-111.6 45.06 -112.21 46.12 -112.83 47.21 C-123.94 68.02 -125.73 91.44 -119 114 C-117.99 116.71 -116.92 119.38 -115.77 122.04 C-115 124 -115 124 -115 126 C-114.32 125.76 -113.64 125.52 -112.94 125.27 C-92.51 118.2 -72.79 115.6 -51.25 115.75 C-50.83 115.75 -50.83 115.75 -48.72 115.76 C-27.17 115.89 -6.94 118.54 14.21 122.61 C15.02 122.77 15.83 122.92 16.67 123.08 C18.21 123.38 19.75 123.68 21.29 123.98 C24.62 124.63 27.59 125 31 125 C32.16 121.84 33.3 118.67 34.44 115.5 C34.76 114.61 35.09 113.73 35.42 112.81 C41.39 96.08 40.43 77.73 35 61 C34.85 60.53 34.85 60.53 34.09 58.18 C31.98 52.37 28.88 47.55 25.29 42.54 C24 40 24 40 24.16 37.32 C25.37 33.98 26.98 32.81 30 31 C33 30.38 33 30.38 36 31 C39.66 34.92 42.47 39.08 45 43.81 C45.34 44.45 45.68 45.09 46.03 45.75 C55.68 64.6 58.89 89.59 52.96 110.05 C52.65 111.02 52.33 112 52 113 C51.84 113.58 51.84 113.58 51 116.54 C43.72 140.86 27.46 160.88 5.3 173.3 C-0.58 176.45 -6.7 178.84 -13 181 C-14 181.35 -15 181.7 -16.04 182.06 C-40.76 189.88 -67.15 184.77 -89.62 173.19 C-95.25 170.03 -100.1 166.17 -105 162 C-105.67 161.48 -106.33 160.96 -107.02 160.43 C-124.08 146.66 -135.7 124.09 -138.72 102.54 C-140.96 74.36 -135.82 48.74 -117.27 26.56 C-88.23 -6.17 -40.78 -21.22 0 0 Z " fill="#E3E5FA" transform="translate(170,40)"/>
<path d="M0 0 C5.58 3.16 5.58 3.16 7 6 C7.92 12.67 7.92 12.67 5.69 15.88 C5.12 16.5 4.55 17.12 3.96 17.75 C3.32 18.44 2.68 19.14 2.03 19.85 C1.36 20.56 0.69 21.27 0 22 C-0.63 22.68 -1.26 23.37 -1.91 24.08 C-3.87 26.19 -5.84 28.28 -7.81 30.38 C-8.16 30.75 -8.16 30.75 -9.93 32.62 C-14.51 37.47 -19.18 42.21 -23.92 46.89 C-25.81 48.81 -27.57 50.77 -29.31 52.81 C-33.04 57.18 -37.13 61.18 -41.23 65.19 C-44.34 68.25 -47.07 71.32 -49.69 74.81 C-51.63 77.11 -52.56 77.89 -55.5 78.62 C-59.42 78.81 -62.12 78.49 -65.56 76.56 C-67.72 72.71 -68.64 69.42 -68 65 C-66.17 61.84 -63.6 59.53 -61 57 C-59.71 55.58 -58.41 54.16 -57.13 52.72 C-52.97 48.09 -48.68 43.62 -44.25 39.25 C-41.24 36.27 -38.31 33.29 -35.56 30.06 C-32.07 25.96 -28.25 22.22 -24.41 18.44 C-21.55 15.59 -18.8 12.71 -16.19 9.62 C-6.67 -1.42 -6.67 -1.42 0 0 Z " fill="#E3E5FA" transform="translate(186,50)"/>
<path d="M0 0 C6.27 0 12.54 0 19 0 C19 0.33 19 0.66 19 1 C17.35 1.33 15.7 1.66 14 2 C14.02 3.13 14.04 4.27 14.06 5.44 C14 9 14 9 13 10 C10.5 10.12 10.5 10.12 8 10 C7 9 7 9 6.94 5.44 C6.96 4.3 6.98 3.17 7 2 C4.69 1.67 2.38 1.34 0 1 C0 0.67 0 0.34 0 0 Z " fill="#4DB062" transform="translate(118,46)"/>
<path d="M0 0 C2.97 0 5.94 0 9 0 C9.12 2.38 9.12 2.38 9 5 C7 7 7 7 4 7.25 C1 7 1 7 -1 5 C-0.62 2.38 -0.62 2.38 0 0 Z " fill="#DC8A11" transform="translate(47,125)"/>
<path d="M0 0 C1.13 0.02 2.27 0.04 3.44 0.06 C3.82 1.72 4.15 3.39 4.44 5.06 C3.44 6.06 3.44 6.06 1.59 6.16 C-0.46 6.13 -2.51 6.1 -4.56 6.06 C-4.61 4.4 -4.6 2.73 -4.56 1.06 C-3.56 0.06 -3.56 0.06 0 0 Z " fill="#C14141" transform="translate(205.5625,124.9375)"/>
</svg>
